<svg width="9" height="10"><path fill-rule="evenodd" fill="#727272" d="M8.907 5.228L4.569 9.889a.283.283 0 01-.214.1.285.285 0 01-.214-.1l-.465-.5a.325.325 0 01-.093-.23c0-.087.03-.164.093-.23l3.658-3.931-3.658-3.93a.322.322 0 01-.093-.23c0-.087.03-.163.093-.23l.465-.5a.288.288 0 01.214-.1c.081 0 .152.034.214.1l4.338 4.66c.062.067-.807.144-.807.23 0 .087.869.164.807.23zm-3.482-.23c0 .087-.03.164-.093.23L.995 9.889a.285.285 0 01-.214.1.283.283 0 01-.214-.1l-.466-.5a.33.33 0 010-.46l3.658-3.931-3.658-3.93a.33.33 0 010-.46l.466-.5a.287.287 0 01.214-.1c.08 0 .152.034.214.1l4.337 4.66a.325.325 0 01.093.23z"/></svg>