<svg version="1.1" id="Uploaded to svgrepo.com" xmlns="http://www.w3.org/2000/svg" width="800" height="800" viewBox="0 0 32 32" xml:space="preserve"><path d="M25 29.5a1.5 1.5 0 11-3.001-.001A1.5 1.5 0 0125 29.5zM10.5 28a1.5 1.5 0 10.001 3.001A1.5 1.5 0 0010.5 28zM30.007 9.003a1 1 0 01.97 1.242l-2.991 11.997a1.002 1.002 0 01-.971.758H9.28l.5 2H25a1 1 0 110 2H8.985a1 1 0 01-.97-.758L3.22 7H1a1 1 0 110-2h2.998a1 1 0 01.97.757L5.78 9l24.227.003zM28.72 11H6.28l2.5 10h17.438l2.502-10zM11 13h-1v1h1v-1zm2 0h-1v1h1v-1zm2 0h-1v1h1v-1zm2 0h-1v1h1v-1zm2 0h-1v1h1v-1zm2 0h-1v1h1v-1zm2 0h-1v1h1v-1zm2 0h-1v1h1v-1zm0 2h-1v1h1v-1zm0 2h-1v1h1v-1zm-2-2h-1v1h1v-1zm-2 0h-1v1h1v-1zm-2 0h-1v1h1v-1zm-2 0h-1v1h1v-1zm-2 0h-1v1h1v-1zm-2 0h-1v1h1v-1zm-2 0h-1v1h1v-1zm0 3v-1h-1v1h1zm2-1h-1v1h1v-1zm2 0h-1v1h1v-1zm2 0h-1v1h1v-1zm2 0h-1v1h1v-1zm2 0h-1v1h1v-1zm2 0h-1v1h1v-1z" fill="#111918"/></svg>