<svg width="800" height="800" viewBox="0 0 24 24" fill="none" xmlns="http://www.w3.org/2000/svg"><g id="Interface / Filter_Off"><path id="Vector" d="M13 4h5.4c.56 0 .84 0 1.055.109a1 1 0 01.436.437C20 4.76 20 5.04 20 5.6v.745c0 .24 0 .36-.027.474-.025.102-.066.2-.12.29-.062.1-.149.187-.322.36L18 9M7.5 4H5.6c-.56 0-.84 0-1.054.109a1 1 0 00-.437.437C4 4.76 4 5.04 4 5.6v.737c0 .245 0 .367.028.482a1 1 0 00.12.29c.061.1.148.187.32.36l5.063 5.062c.173.173.26.26.321.36.055.09.096.188.12.29.028.114.028.235.028.474v4.756c0 .857 0 1.286.18 1.544a1 1 0 00.674.416c.311.046.695-.145 1.461-.529l.8-.4c.322-.16.482-.24.599-.36a.999.999 0 00.231-.374c.055-.158.055-.338.055-.697v-4.348c0-.245 0-.367.028-.482a.998.998 0 01.12-.29c.061-.1.147-.186.319-.358l.002-.002 1.031-1.03m0 0L5 1m10.5 10.5L19 15" stroke="#000" stroke-width="2" stroke-linecap="round" stroke-linejoin="round"/></g></svg>