<svg width="16" height="16"><path fill-rule="evenodd" fill="#727272" d="M7.999-.001L.228 6.857a.665.665 0 00-.064.925.639.639 0 00.91.065l.286-.253v6.44c0 1.085.866 1.965 1.934 1.965h3.609v-5.274c0-.632.505-1.146 1.128-1.146.623 0 1.128.514 1.128 1.146v5.274h3.545c1.068 0 1.934-.88 1.934-1.965v-6.44l.286.253a.637.637 0 00.909-.065.663.663 0 00-.064-.925L7.999-.001zm5.35 14.035a.65.65 0 01-.645.655h-2.256v-3.964c0-1.356-1.082-2.456-2.417-2.456-1.335 0-2.417 1.1-2.417 2.456v3.964h-2.32a.65.65 0 01-.645-.655V6.456l5.35-4.722 5.35 4.722v7.578z"/></svg>