<svg xmlns="http://www.w3.org/2000/svg" width="14" height="19" viewBox="0 0 14 18"><path d="M7.438.227C3.695.227 0 2.633 0 6.523 0 9 1.445 10.406 2.32 10.406c.36 0 .567-.969.567-1.246 0-.324-.864-1.02-.864-2.383 0-2.824 2.23-4.828 5.118-4.828 2.484 0 4.32 1.36 4.32 3.86 0 1.867-.774 5.367-3.29 5.367-.91 0-1.687-.633-1.687-1.54 0-1.327.965-2.616.965-3.988 0-2.328-3.426-1.906-3.426.907 0 .593.079 1.246.352 1.785-.504 2.086-1.531 5.2-1.531 7.351 0 .664.097 1.317.164 1.98.125.134.062.122.25.056 1.84-2.426 1.773-2.903 2.605-6.075.45.82 1.606 1.266 2.528 1.266 3.87 0 5.609-3.64 5.609-6.922 0-3.488-3.129-5.77-6.563-5.77zm0 0" id="surface1"/></svg>