<svg width="24" height="24" id="star"><path fill="#ccccce" d="M15.92 11.82a1.1 1.1 0 00-.32.97l.89 4.92c.07.42-.1.84-.45 1.08a1.1 1.1 0 01-1.17.08l-4.43-2.31a1.136 1.136 0 00-.5-.13h-.27a.811.811 0 00-.27.09l-4.43 2.32c-.22.11-.47.15-.71.11a1.11 1.11 0 01-.89-1.27l.89-4.92a1.12 1.12 0 00-.32-.98L.33 8.28c-.3-.3-.41-.73-.27-1.13.13-.39.47-.68.89-.75l4.97-.72c.38-.04.71-.27.88-.61L8.99.58c.05-.1.12-.19.2-.27l.09-.07c.04-.05.1-.09.16-.13l.11-.04.17-.07h.42c.38.04.71.27.88.6l2.22 4.47c.16.33.47.55.83.61l4.97.72c.42.06.77.35.91.75.13.4.02.84-.29 1.13l-3.74 3.54z" transform="translate(2 2.5)"/></svg>