<svg xmlns="http://www.w3.org/2000/svg" width="19" height="19"><path d="M17.047 5.629c.012.168.012.34.012.504 0 5.148-3.918 11.082-11.082 11.082A10.99 10.99 0 010 15.469c.313.035.617.047.938.047a7.81 7.81 0 004.835-1.664 3.901 3.901 0 01-3.64-2.7c.242.036.484.059.734.059.352 0 .7-.047 1.028-.133A3.892 3.892 0 01.773 7.254v-.047c.52.29 1.122.473 1.758.492A3.88 3.88 0 01.793 4.457c0-.723.195-1.387.531-1.969a11.061 11.061 0 008.031 4.078 4.572 4.572 0 01-.097-.89 3.893 3.893 0 013.894-3.895 3.9 3.9 0 012.844 1.227 7.542 7.542 0 002.473-.938 3.878 3.878 0 01-1.711 2.145A7.86 7.86 0 0019 3.613a8.397 8.397 0 01-1.953 2.016zm0 0" id="surface1"/></svg>